<svg xmlns="http://www.w3.org/2000/svg" width="720" height="360" viewBox="0 0 720 360" fill="none">
  <rect width="720" height="360" fill="#F8FAFC"/>
  <text x="32" y="42" fill="#0F172A" font-family="Inter, Arial" font-size="20" font-weight="700">Softmax preview</text>
  <text x="32" y="72" fill="#475569" font-family="Inter, Arial" font-size="14">Dummy scores from 3 models</text>
  <g transform="translate(32 96)">
    <text x="0" y="0" fill="#334155" font-family="Inter, Arial" font-size="13" font-weight="600">Model 1</text>
    <rect x="0" y="16" width="520" height="18" rx="4" fill="#E2E8F0"/>
    <rect x="0" y="16" width="390" height="18" rx="4" fill="#6366F1"/>
    <text x="530" y="29" fill="#0F172A" font-family="Inter, Arial" font-size="13" font-weight="600">Chinh tri • 0.75</text>
    <rect x="0" y="44" width="520" height="10" rx="3" fill="#E2E8F0"/>
    <rect x="0" y="44" width="80" height="10" rx="3" fill="#A5B4FC"/>
    <text x="530" y="52" fill="#475569" font-family="Inter, Arial" font-size="11">Kinh te • 0.15</text>
    <rect x="0" y="60" width="520" height="10" rx="3" fill="#E2E8F0"/>
    <rect x="0" y="60" width="50" height="10" rx="3" fill="#CBD5E1"/>
    <text x="530" y="68" fill="#94A3B8" font-family="Inter, Arial" font-size="11">Khac • 0.10</text>
  </g>
  <g transform="translate(32 176)">
    <text x="0" y="0" fill="#334155" font-family="Inter, Arial" font-size="13" font-weight="600">Model 2</text>
    <rect x="0" y="16" width="520" height="18" rx="4" fill="#E2E8F0"/>
    <rect x="0" y="16" width="430" height="18" rx="4" fill="#22C55E"/>
    <text x="530" y="29" fill="#0F172A" font-family="Inter, Arial" font-size="13" font-weight="600">Giai tri • 0.82</text>
    <rect x="0" y="44" width="520" height="10" rx="3" fill="#E2E8F0"/>
    <rect x="0" y="44" width="55" height="10" rx="3" fill="#86EFAC"/>
    <text x="530" y="52" fill="#475569" font-family="Inter, Arial" font-size="11">The thao • 0.11</text>
    <rect x="0" y="60" width="520" height="10" rx="3" fill="#E2E8F0"/>
    <rect x="0" y="60" width="35" height="10" rx="3" fill="#BBF7D0"/>
    <text x="530" y="68" fill="#94A3B8" font-family="Inter, Arial" font-size="11">Khac • 0.07</text>
  </g>
  <g transform="translate(32 256)">
    <text x="0" y="0" fill="#334155" font-family="Inter, Arial" font-size="13" font-weight="600">Model 3</text>
    <rect x="0" y="16" width="520" height="18" rx="4" fill="#E2E8F0"/>
    <rect x="0" y="16" width="360" height="18" rx="4" fill="#F97316"/>
    <text x="530" y="29" fill="#0F172A" font-family="Inter, Arial" font-size="13" font-weight="600">Cong nghe • 0.69</text>
    <rect x="0" y="44" width="520" height="10" rx="3" fill="#E2E8F0"/>
    <rect x="0" y="44" width="95" height="10" rx="3" fill="#FDBA74"/>
    <text x="530" y="52" fill="#475569" font-family="Inter, Arial" font-size="11">Kinh te • 0.18</text>
    <rect x="0" y="60" width="520" height="10" rx="3" fill="#E2E8F0"/>
    <rect x="0" y="60" width="40" height="10" rx="3" fill="#FED7AA"/>
    <text x="530" y="68" fill="#94A3B8" font-family="Inter, Arial" font-size="11">Khac • 0.13</text>
  </g>
</svg>
