<svg xmlns="http://www.w3.org/2000/svg" width="720" height="200" viewBox="0 0 720 200" fill="none">
  <rect width="720" height="200" fill="#F8FAFC"/>
  <text x="24" y="36" fill="#0F172A" font-family="Inter, Arial" font-size="18" font-weight="700">Dự đoán từ link bài báo (demo)</text>
  <text x="24" y="58" fill="#475569" font-family="Inter, Arial" font-size="13">URL → tiêu đề + snippet → 3 model dự đoán tag</text>

  <rect x="24" y="76" width="380" height="32" rx="8" fill="#FFFFFF" stroke="#E2E8F0"/>
  <text x="40" y="97" fill="#94A3B8" font-family="Inter, Arial" font-size="12">https://thanhnien.vn/bai-bao-mau.html</text>
  <rect x="416" y="76" width="84" height="32" rx="8" fill="#4F46E5"/>
  <text x="440" y="97" fill="#FFFFFF" font-family="Inter, Arial" font-size="12" font-weight="700">Predict</text>

  <g transform="translate(24 120)">
    <rect x="0" y="0" width="220" height="64" rx="10" fill="#FFFFFF" stroke="#E2E8F0"/>
    <text x="14" y="24" fill="#0F172A" font-family="Inter, Arial" font-size="13" font-weight="700">Tiêu đề lấy được</text>
    <text x="14" y="44" fill="#475569" font-family="Inter, Arial" font-size="12">Bài báo mẫu về chính trị ...</text>
  </g>
  <g transform="translate(260 120)">
    <rect x="0" y="0" width="140" height="64" rx="10" fill="#EEF2FF"/>
    <text x="12" y="26" fill="#312E81" font-family="Inter, Arial" font-size="12" font-weight="700">Model 1</text>
    <text x="12" y="46" fill="#4338CA" font-family="Inter, Arial" font-size="12">Chinh tri • 0.78</text>
  </g>
  <g transform="translate(416 120)">
    <rect x="0" y="0" width="140" height="64" rx="10" fill="#ECFDF3"/>
    <text x="12" y="26" fill="#065F46" font-family="Inter, Arial" font-size="12" font-weight="700">Model 2</text>
    <text x="12" y="46" fill="#047857" font-family="Inter, Arial" font-size="12">Kinh te • 0.12</text>
  </g>
  <g transform="translate(572 120)">
    <rect x="0" y="0" width="124" height="64" rx="10" fill="#FFF7ED"/>
    <text x="12" y="26" fill="#7C2D12" font-family="Inter, Arial" font-size="12" font-weight="700">Model 3</text>
    <text x="12" y="46" fill="#C2410C" font-family="Inter, Arial" font-size="12">Giai tri • 0.10</text>
  </g>
</svg>
